#!OML:ASF H:\LiuWeirdWalks\Patient Classification 1\Patient 1\Session 1\male.ASF
:FULLY-SPECIFIED
:DEGREES
363
root 1.64246 17.7684 3.8946 2.34497 0.0952608 7.01097
lowerback 9.61223 -2.15112 -8.55452
upperback 0.698754 -3.68613 2.02227
thorax -3.98494 -1.66804 7.42472
lowerneck -17.0578 3.34939 6.5428
upperneck 7.64159 3.44722 -3.66539
head 5.23329 1.6227 -1.88175
rclavicle 4.85035e-014 -3.10104e-014
rhumerus -41.3321 -10.4704 -70.6095
rradius 27.087
rwrist -6.9362
rhand -16.7769 -2.86299
rfingers 7.12502
rthumb 9.45057 -32.6311
lclavicle 4.85035e-014 -3.10104e-014
lhumerus -27.8041 -13.1861 81.8525
lradius 58.6802
lwrist 14.3208
lhand -14.1205 -4.11915
lfingers 7.12502
lthumb 12.013 25.5161
rfemur -39.3909 0.277882 7.25668
rtibia 35.4241
rfoot -11.3962 -17.8959
rtoes -11.4565
lfemur -2.20472 -3.64768 -29.0655
ltibia 23.8988
lfoot -13.8314 15.9936
ltoes -6.96362
364
root 1.64348 17.7442 4.06051 2.54919 0.245535 7.20715
lowerback 9.45753 -2.25624 -8.69009
upperback 0.656511 -3.82857 2.02139
thorax -3.90761 -1.73936 7.50715
lowerneck -16.9049 3.35547 6.60112
upperneck 7.53677 3.45733 -3.71832
head 5.17847 1.62648 -1.90863
rclavicle -3.16068e-014 2.62396e-014
rhumerus -41.3203 -10.3669 -70.7401
rradius 27.2363
rwrist -7.05432
rhand -16.5954 -2.73855
rfingers 7.12502
rthumb 9.62571 -32.4986
lclavicle -3.16068e-014 2.62396e-014
lhumerus -27.3882 -13.0151 81.6325
lradius 58.7478
lwrist 14.3246
lhand -14.1409 -3.90746
lfingers 7.12502
lthumb 11.9932 25.7289
rfemur -39.7408 0.700975 6.7752
rtibia 33.1505
rfoot -11.5485 -18.3452
rtoes -11.8147
lfemur -1.34885 -3.63577 -29.2848
ltibia 23.0543
lfoot -14.2162 16.0011
ltoes -6.85352
365
root 1.64361 17.7166 4.22647 2.74067 0.381138 7.42628
lowerback 9.31638 -2.34894 -8.84704
upperback 0.623093 -3.95778 2.00726
thorax -3.82995 -1.80424 7.58601
lowerneck -16.7882 3.36468 6.67014
upperneck 7.44814 3.46693 -3.76962
head 5.13467 1.63022 -1.93635
rclavicle -1.49089e-014 3.97569e-015
rhumerus -41.2921 -10.3301 -70.8539
rradius 27.3516
rwrist -7.1326
rhand -16.3875 -2.55965
rfingers 7.12502
rthumb 9.82628 -32.3104
lclavicle -1.49089e-014 3.97569e-015
lhumerus -26.9644 -12.8321 81.4231
lradius 58.761
lwrist 14.1897
lhand -14.2158 -3.77634
lfingers 7.12502
lthumb 11.9211 25.8643
rfemur -40.1363 1.10094 6.26882
rtibia 31.1775
rfoot -11.7263 -18.8345
rtoes -12.1432
lfemur -0.505933 -3.63648 -29.5255
ltibia 22.2548
lfoot -14.5816 16.0231
ltoes -6.78098
366
root 1.64322 17.6855 4.39267 2.90903 0.507659 7.657
lowerback 9.20616 -2.4324 -9.00943
upperback 0.597315 -4.07771 1.98405
thorax -3.763 -1.86421 7.6585
lowerneck -16.692 3.37177 6.75279
upperneck 7.34985 3.47069 -3.83393
head 5.09132 1.63031 -1.97074
rclavicle 2.18663e-015 -2.22639e-014
rhumerus -41.2459 -10.3514 -70.9507
rradius 27.4216
rwrist -7.13996
rhand -16.1783 -2.34767
rfingers 7.12502
rthumb 10.0281 -32.0888
lclavicle 2.18663e-015 -2.22639e-014
lhumerus -26.5459 -12.6589 81.232
lradius 58.7452
lwrist 14.0892
lhand -14.3384 -3.67304
lfingers 7.12502
lthumb 11.8028 25.9744
rfemur -40.5652 1.4167 5.78934
rtibia 29.5472
rfoot -11.9662 -19.3258
rtoes -12.3716
lfemur 0.331318 -3.65388 -29.7784
ltibia 21.5129
lfoot -14.923 16.0703
ltoes -6.77196
367
root 1.64269 17.6507 4.55902 3.05294 0.625539 7.91414
lowerback 9.12439 -2.50455 -9.18264
upperback 0.578793 -4.18619 1.94855
thorax -3.70618 -1.91811 7.72408
lowerneck -16.6164 3.37489 6.81326
upperneck 7.28054 3.47068 -3.87683
head 5.05938 1.62941 -1.99488
rclavicle 3.99557e-014 5.56597e-015
rhumerus -41.1886 -10.4322 -71.0204
rradius 27.4541
rwrist -7.06941
rhand -15.9701 -2.07414
rfingers 7.12502
rthumb 10.229 -31.8054
lclavicle 3.99557e-014 5.56597e-015
lhumerus -26.1477 -12.4792 81.0735
lradius 58.7086
lwrist 13.979
lhand -14.5145 -3.60715
lfingers 7.12502
lthumb 11.633 26.0499
rfemur -41.0189 1.5702 5.36812
rtibia 28.2813
rfoot -12.2306 -19.7375
rtoes -12.5276
lfemur 1.15538 -3.68773 -30.0624
ltibia 20.849
lfoot -15.2572 16.1357
ltoes -6.80413
368
root 1.64153 17.6123 4.72557 3.17148 0.701342 8.16451
lowerback 9.0646 -2.55991 -9.3487
upperback 0.572518 -4.27304 1.90911
thorax -3.65333 -1.96167 7.78002
lowerneck -16.5745 3.37377 6.8601
upperneck 7.2424 3.4643 -3.90335
head 5.04173 1.62599 -2.01185
rclavicle -6.91771e-014 3.18055e-015
rhumerus -41.1096 -10.5045 -71.1186
rradius 27.4953
rwrist -7.04305
rhand -15.8056 -1.90856
rfingers 7.12502
rthumb 10.3877 -31.632
lclavicle -6.91771e-014 3.18055e-015
lhumerus -25.7761 -12.2956 80.9372
lradius 58.6564
lwrist 13.8777
lhand -14.7487 -3.58007
lfingers 7.12502
lthumb 11.4071 26.0896
rfemur -41.4967 1.57505 5.06883
rtibia 27.388
rfoot -12.4645 -20.0243
rtoes -12.6068
lfemur 1.95929 -3.72554 -30.3446
ltibia 20.2725
lfoot -15.5876 16.2391
ltoes -6.8731
